<svg width="249" height="142" viewBox="0 0 249 142" fill="none" xmlns="http://www.w3.org/2000/svg">
<path d="M221.5 49.5L237 49V68H218L221.5 49.5Z" fill="white"/>
<path d="M183.696 12H206.785L214 18.5512L214.5 39.5L211.5 43.5L216 60.5L206.785 64H195.722H183.696L176 57.4488V18.5512L183.696 12Z" fill="white"/>
<path d="M181.867 11H204.788C207.205 11 209.646 12.322 212.112 14.9661C214.804 17.1058 216.151 19.2837 216.151 21.4998V37.8457C216.151 39.8937 214.975 41.7048 212.623 43.279C211.941 43.9515 211.601 44.41 211.601 44.6545C215.591 54.4819 217.724 60.0527 218 61.3671C218 62.3147 217.043 64.5614 215.129 68.1072C210.992 74.7556 208.373 78.8669 207.27 80.4411C206.199 81.4804 204.755 82 202.938 82H190.943C188.996 82 187.69 81.5491 187.025 80.6474C185.776 81.5491 184.333 82 182.694 82H172.158C168.719 82 167 80.3799 167 77.1398V32.206C167 30.5095 168.582 27.3305 171.745 22.669C175.427 16.0359 177.633 12.4672 178.363 11.9629C179.174 11.321 180.342 11 181.867 11ZM181.04 15.2641V61.3671H193.23V44.4482C193.781 44.9831 195.915 50.6228 199.629 61.3671H213.45L206.442 43.279C206.75 43.172 208.543 41.4908 211.82 38.2354V21.1101C211.82 20.942 209.751 18.9933 205.615 15.2641H181.04ZM193.425 26.5434H199.629V32.3894H193.425V26.5434Z" fill="black"/>
<path d="M148 12H172L177 20L172 37L171 46L178 53L176.5 62L169 63L160 61L150 64.5L140 67.5V20L142 14.5L148 12Z" fill="white"/>
<path d="M143.832 11H172.513C176.171 11 178 12.75 178 16.2499V25.9703C178 27.9113 176.914 30.372 174.741 33.3523C173.927 34.8654 173.519 35.7747 173.519 36.0804V43.4853C173.519 44.1425 173.392 44.922 173.136 45.8237C176.379 45.8237 178 47.4438 178 50.6839V59.8311C178 62.3071 177.529 64.3474 176.586 65.9522C170.884 75.2905 167.697 80.25 167.026 80.8308C166.099 81.6103 164.814 82 163.168 82H134.295C130.765 82 129 80.1201 129 76.3604V32.9855C129 30.8763 130.014 28.408 132.043 25.5806C137.075 16.5938 139.854 12.0546 140.381 11.9629C141.18 11.321 142.33 11 143.832 11ZM143.041 15.2641V61.3671H173.519V49.9044H155.022V44.0584H169.254V32.5957H155.022V26.7498H173.519V15.2641H143.041Z" fill="black"/>
<path d="M108.696 13H131.785L139 19.5512V58.4488L131.785 65H120.722H108.696L101 58.4488V19.5512L108.696 13Z" fill="white"/>
<path d="M106.956 11H129.716C132.181 11 134.782 12.2915 137.521 14.8744C139.84 17.1058 141 19.3143 141 21.4998V54.3749C141 56.5299 140.243 58.9676 138.729 61.6881C133.478 70.1399 130.337 74.832 129.306 75.7643C125.118 79.9214 122.46 82 121.332 82H97.3397C93.7799 82 92 80.1201 92 76.3604V32.9855C92 30.8763 93.0228 28.408 95.0685 25.5806C100.143 16.5938 102.945 12.0546 103.477 11.9629C104.282 11.321 105.442 11 106.956 11ZM106.159 15.2641V61.3671H130.538C130.715 61.3671 132.704 59.4872 136.506 55.7275V20.9038C136.506 20.7509 134.517 18.8711 130.538 15.2641H106.159ZM118.24 26.7498H124.401V49.9044H118.24V26.7498Z" fill="black"/>
<path d="M66.6962 13H89.7848L97 19.5512L97.5 40.5L94.5 44.5L99 61.5L89.7848 65H78.7215H66.6962L59 58.4488V19.5512L66.6962 13Z" fill="white"/>
<path d="M160.5 74L169.911 86.5L177.5 75L183.886 74H190L193 81.4331L191.5 125.567L183.886 133H154.722L145 125.567V81.4331L147 74H160.5Z" fill="white"/>
<path d="M148.737 71H159.374C162.333 71 164.247 72.4897 165.115 75.469C167.833 80.5263 169.264 83.0549 169.408 83.0549C173.075 75.278 175.535 71.3896 176.789 71.3896C177.722 71.1299 178.534 71 179.225 71H189.476C193.159 71 195 72.7494 195 76.2482V120.411C195 122.306 194.22 124.506 192.66 127.012C187.193 135.904 184.291 140.51 183.953 140.831C183.02 141.61 181.718 142 180.045 142H169.626C166.779 142 165.067 140.762 164.488 138.287C164.488 138.165 164.424 138.104 164.295 138.104C163.346 140.564 161.778 141.794 159.592 141.794C157.678 141.794 156.247 140.694 155.298 138.494H155.081C154.245 139.808 153.634 140.648 153.248 141.015C152.235 141.672 151.005 142 149.558 142H139.113C135.704 142 134 140.373 134 137.118V92.1992C134 90.5185 135.568 87.3405 138.703 82.6653C142.354 76.0496 144.541 72.4897 145.264 71.9855C146.068 71.3285 147.226 71 148.737 71ZM147.917 75.2857V121.374H160.002V104.254C161.32 106.225 164.391 111.87 169.215 121.19H169.408C175.278 110.098 178.212 104.453 178.212 104.254H178.429V121.374H190.49V75.2857H178.622C178.349 75.4079 175.278 81.0457 169.408 92.1992V92.4054C169.135 92.2679 166.064 86.5613 160.195 75.2857H147.917Z" fill="black"/>
<path d="M223.985 47H235.021C238.34 47 240 48.5503 240 51.651V61.9107C240 63.613 239.035 65.6726 237.106 68.0893C232.266 76.7074 229.348 81.4193 228.35 82.2248C227.337 82.7416 226.225 83 225.015 83H214.42C210.807 83 209 81.3205 209 77.9614V68.0893C209 67.1317 209.204 66.2274 209.613 65.3762L220.036 48.368C220.789 47.456 222.105 47 223.985 47ZM223.372 51.0583V62.4807H235.634V51.0583H223.372Z" fill="black"/>
<path d="M210 71H234L239 79L234 96L240 112L238.5 121L231 122L222 120L212 123.5L202 126.5V79L210 71Z" fill="white"/>
<path d="M206.832 70H235.513C239.171 70 241 71.75 241 75.2499V84.9703C241 86.9113 239.914 89.372 237.741 92.3523C236.927 93.8654 236.519 94.7747 236.519 95.0804V102.485C236.519 103.143 236.392 103.922 236.136 104.824C239.379 104.824 241 106.444 241 109.684V118.831C241 121.307 240.529 123.347 239.586 124.952C233.884 134.29 230.697 139.25 230.026 139.831C229.099 140.61 227.814 141 226.168 141H197.295C193.765 141 192 139.12 192 135.36V91.9855C192 89.8763 193.014 87.408 195.043 84.5806C200.075 75.5938 202.854 71.0546 203.381 70.9629C204.18 70.321 205.33 70 206.832 70ZM206.041 74.2641V120.367H236.519V108.904H218.022V103.058H232.254V91.5957H218.022V85.7498H236.519V74.2641H206.041Z" fill="black"/>
<path d="M66.8669 11H89.7877C92.2047 11 94.646 12.322 97.1116 14.9661C99.8044 17.1058 101.151 19.2837 101.151 21.4998V37.8457C101.151 39.8937 99.9747 41.7048 97.6226 43.279C96.9413 43.9515 96.6007 44.41 96.6007 44.6545C100.591 54.4819 102.724 60.0527 103 61.3671C103 62.3147 102.043 64.5614 100.129 68.1072C95.9924 74.7556 93.3726 78.8669 92.2696 80.4411C91.199 81.4804 89.7552 82 87.9385 82H75.9427C73.9962 82 72.6904 81.5491 72.0253 80.6474C70.7762 81.5491 69.3325 82 67.6942 82H57.1584C53.7195 82 52 80.3799 52 77.1398V32.206C52 30.5095 53.5816 27.3305 56.7448 22.669C60.427 16.0359 62.6331 12.4672 63.3631 11.9629C64.1741 11.321 65.3421 11 66.8669 11ZM66.0396 15.2641V61.3671H78.23V44.4482C78.7815 44.9831 80.9146 50.6228 84.6293 61.3671H98.4499L91.4423 43.279C91.7505 43.172 93.5429 41.4908 96.8197 38.2354V21.1101C96.8197 20.942 94.7514 18.9933 90.615 15.2641H66.0396ZM78.4246 26.5434H84.6293V32.3894H78.4246V26.5434Z" fill="black"/>
<path d="M19 3.5L45.5 4L54.5 12L52.5 62.5L45 70.5H33.5H21L11.5 61.5L10 12L19 3.5Z" fill="white"/>
<path d="M21.2188 0H42.9375C45.8125 0 48.8646 1.64583 52.0938 4.9375C55.7188 8.47917 57.5312 11.4271 57.5312 13.7812V59.6562C57.5312 61.9062 56.4271 65.3646 54.2188 70.0312C47.7396 80.6771 49.2189 77.7917 47.6564 79.5C42.3855 85 33.5939 83.5 32.1564 83.5H16.1564C13.1147 83.5 8.44804 84.6875 5.65637 81.5C1.76054 78 0.000111103 75.0417 0.000111103 72L0 41V31.5V26C8.97917 9.77083 7.90625 10.0312 8.46875 9.28125C14.3437 3.28125 17.7917 0.28125 18.8125 0.28125C19.7708 0.09375 20.5729 0 21.2188 0ZM12.4687 13.5312V61C12.4687 61.2083 15.0312 63.7708 20.1562 68.6875H44C44.2292 68.6875 46.8021 66.125 51.7188 61V13.5312C51.7188 13.3021 49.1458 10.7396 44 5.84375C44 5.84375 29.4678 5.84375 20.1562 5.84375C19.9271 5.84375 17.3646 8.40625 12.4687 13.5312ZM28.0938 21.4688H36.0625V53.0312H28.0938V21.4688Z" fill="black"/>
</svg>
